HIERARCHY
ROOT Hips
{
	OFFSET 0.00000 0.00000 0.00000
	CHANNELS 6 Xposition Yposition Zposition Zrotation Yrotation Xrotation 
	JOINT LHipJoint
	{
		OFFSET 0 0 0
		CHANNELS 3 Zrotation Yrotation Xrotation
		JOINT LeftUpLeg
		{
			OFFSET 1.60223 -1.58443 0.78595
			CHANNELS 3 Zrotation Yrotation Xrotation
			JOINT LeftLeg
			{
				OFFSET 2.21690 -6.09089 0.00000
				CHANNELS 3 Zrotation Yrotation Xrotation
				JOINT LeftFoot
				{
					OFFSET 2.34805 -6.45122 0.00000
					CHANNELS 3 Zrotation Yrotation Xrotation
					JOINT LeftToeBase
					{
						OFFSET 0.35452 -0.97402 1.38549
						CHANNELS 3 Zrotation Yrotation Xrotation
						End Site
						{
							OFFSET 0.00000 -0.00000 0.82816
						}
					}
				}
			}
		}
	}
	JOINT RHipJoint
	{
		OFFSET 0 0 0
		CHANNELS 3 Zrotation Yrotation Xrotation
		JOINT RightUpLeg
		{
			OFFSET -1.56524 -1.58443 0.78595
			CHANNELS 3 Zrotation Yrotation Xrotation
			JOINT RightLeg
			{
				OFFSET -2.15558 -5.92241 0.00000
				CHANNELS 3 Zrotation Yrotation Xrotation
				JOINT RightFoot
				{
					OFFSET -2.35077 -6.45870 0.00000
					CHANNELS 3 Zrotation Yrotation Xrotation
					JOINT RightToeBase
					{
						OFFSET -0.26910 -0.73935 1.33295
						CHANNELS 3 Zrotation Yrotation Xrotation
						End Site
						{
							OFFSET -0.00000 -0.00000 0.75962
						}
					}
				}
			}
		}
	}
	JOINT LowerBack
	{
		OFFSET 0 0 0
		CHANNELS 3 Zrotation Yrotation Xrotation
		JOINT Spine
		{
			OFFSET -0.05489 1.97104 -0.02993
			CHANNELS 3 Zrotation Yrotation Xrotation
			JOINT Spine1
			{
				OFFSET -0.00702 1.94230 0.13626
				CHANNELS 3 Zrotation Yrotation Xrotation
				JOINT Neck
				{
					OFFSET 0 0 0
					CHANNELS 3 Zrotation Yrotation Xrotation
					JOINT Neck1
					{
						OFFSET -0.07858 1.62869 -0.02510
						CHANNELS 3 Zrotation Yrotation Xrotation
						JOINT Head
						{
							OFFSET 0.13978 1.59213 -0.29859
							CHANNELS 3 Zrotation Yrotation Xrotation
							End Site
							{
								OFFSET 0.05353 1.64420 -0.10000
							}
						}
					}
				}
				JOINT LeftShoulder
				{
					OFFSET 0 0 0
					CHANNELS 3 Zrotation Yrotation Xrotation
					JOINT LeftArm
					{
						OFFSET 3.48263 1.15278 0.52941
						CHANNELS 3 Zrotation Yrotation Xrotation
						JOINT LeftForeArm
						{
							OFFSET 4.59207 -0.00000 -0.00000
							CHANNELS 3 Zrotation Yrotation Xrotation
							JOINT LeftHand
							{
								OFFSET 2.98109 -0.00000 -0.00000
								CHANNELS 3 Zrotation Yrotation Xrotation
								JOINT LeftFingerBase
								{
									OFFSET 0 0 0
									CHANNELS 3 Zrotation Yrotation Xrotation
									JOINT LeftHandIndex1
									{
										OFFSET 0.48020 -0.00000 -0.00000
										CHANNELS 3 Zrotation Yrotation Xrotation
										End Site
										{
											OFFSET 0.38715 -0.00000 -0.00000
										}
									}
								}
								JOINT LThumb
								{
									OFFSET 0 0 0
									CHANNELS 3 Zrotation Yrotation Xrotation
									End Site
									{
										OFFSET 0.39306 -0.00000 0.39306
									}
								}
							}
						}
					}
				}
				JOINT RightShoulder
				{
					OFFSET 0 0 0
					CHANNELS 3 Zrotation Yrotation Xrotation
					JOINT RightArm
					{
						OFFSET -3.52496 1.12722 0.24548
						CHANNELS 3 Zrotation Yrotation Xrotation
						JOINT RightForeArm
						{
							OFFSET -4.76508 -0.00000 -0.00000
							CHANNELS 3 Zrotation Yrotation Xrotation
							JOINT RightHand
							{
								OFFSET -2.78902 -0.00000 -0.00000
								CHANNELS 3 Zrotation Yrotation Xrotation
								JOINT RightFingerBase
								{
									OFFSET 0 0 0
									CHANNELS 3 Zrotation Yrotation Xrotation
									JOINT RightHandIndex1
									{
										OFFSET -0.72130 -0.00000 -0.00000
										CHANNELS 3 Zrotation Yrotation Xrotation
										End Site
										{
											OFFSET -0.58153 -0.00000 -0.00000
										}
									}
								}
								JOINT RThumb
								{
									OFFSET 0 0 0
									CHANNELS 3 Zrotation Yrotation Xrotation
									End Site
									{
										OFFSET -0.59041 -0.00000 0.59041
									}
								}
							}
						}
					}
				}
			}
		}
	}
}
MOTION
Frames: 14
Frame Time: .0083333
0.9668 16.5351 -3.1185 911.8850 118.2760 -875.5350 0.0000 0.0000 0.0000 -28.8235 14.6618 -25.7367 3.9515 12.0955 36.0708 0.5992 2.9931 -16.0146 1.0250 -6.4403 -18.0674 0.0000 0.0000 0.0000 15.5653 -7.6384 -37.5709 -6.3319 -14.7425 46.2998 0.4602 -13.8715 -12.7117 -3.0838 10.8295 -31.7071 -5.6904 2.1123 -0.8247 -5.3984 2.4919 -11.5673 -2.9868 1.6290 -12.0157 -4.0656 14.1619 -2.9798 10.1644 18.6175 10.3757 4.3948 9.5942 2.4565 0.0000 -0.0000 0.0000 -93.0768 -2.2116 68.0351 147.2169 -43.1627 -106.7265 -0.0000 0.0000 -6.1694 10.4973 20.4371 3.7018 -7.1250 0.0000 -0.0000 -17.7697 49.8817 -2.2000 0.0000 -0.0000 0.0000 92.7543 -46.4776 -11.5198 -73.6208 58.9616 -45.8646 0.0000 -0.0000 -21.3413 10.1284 57.0312 8.5235 7.1250 -0.0000 -0.0000 23.3390 23.8008 32.7654
0.8627 16.4857 -3.1113 908.2600 127.3230 -879.6000 0.0000 0.0000 0.0000 -29.9067 20.0125 -28.2940 4.3768 12.6456 38.0559 0.5261 4.0537 -15.7833 0.7483 -5.5255 -15.4137 0.0000 0.0000 0.0000 17.7951 -9.2385 -39.5916 -6.6262 -15.0089 47.4460 0.4269 -12.1418 -8.6910 -4.3827 12.6530 -38.0830 -5.4025 1.6095 -1.7478 -5.2307 1.8511 -11.6852 -2.8504 1.2752 -11.5813 -5.2904 13.0730 -4.3379 11.7165 17.0969 10.6988 4.7091 8.9053 2.3820 0.0000 -0.0000 0.0000 -93.0289 -0.7147 68.6146 146.0263 -44.0652 -105.9053 -0.0000 0.0000 -6.0085 7.1698 18.8803 2.3310 -7.1250 0.0000 -0.0000 -20.1774 47.9224 -1.5128 0.0000 -0.0000 0.0000 93.1711 -45.1464 -9.0245 -78.0273 59.4514 -49.6505 0.0000 -0.0000 -21.3184 6.6968 55.7533 5.5437 7.1250 -0.0000 -0.0000 21.9586 22.7467 30.4155
0.7410 16.4215 -3.0968 906.2440 136.1840 -882.1130 0.0000 0.0000 0.0000 -30.8069 23.6670 -30.7013 4.9813 13.3627 40.7420 0.4018 6.2427 -15.8788 0.6124 -5.0086 -13.9332 0.0000 0.0000 0.0000 20.1319 -11.1237 -40.9285 -6.5947 -14.9808 47.3241 0.2430 -9.0537 -5.9967 -4.7990 13.1538 -39.9470 -5.3262 0.8369 -2.1954 -4.9685 0.7841 -12.1388 -2.5257 0.7441 -11.8497 -5.9427 11.6386 -4.7413 12.8827 15.0976 11.1061 5.2053 7.9582 2.5845 0.0000 -0.0000 0.0000 -93.2057 1.5872 68.5765 144.8321 -44.9316 -105.0682 -0.0000 0.0000 -9.1199 9.3430 20.6454 3.3200 -7.1250 0.0000 -0.0000 -18.9429 49.9045 -2.3655 0.0000 -0.0000 0.0000 93.4439 -43.7299 -6.6115 -81.0364 59.6942 -52.2453 0.0000 -0.0000 -22.3508 9.6613 55.8178 8.0163 7.1250 -0.0000 -0.0000 23.0759 22.6738 32.1515
0.6047 16.4573 -3.0551 904.5480 144.6810 -884.0780 0.0000 0.0000 0.0000 -30.3531 24.7898 -32.5225 5.7084 14.1397 43.8000 0.0629 9.8950 -15.0859 0.2266 -3.0639 -8.4566 0.0000 0.0000 0.0000 22.2989 -11.4464 -41.2344 -6.1219 -14.5455 45.4691 0.1098 -6.2752 -4.6715 -4.2486 12.4840 -37.4665 -5.1516 -0.0815 -2.5812 -4.4897 -0.4676 -12.4731 -2.0022 0.1213 -12.0039 -6.7994 9.7225 -5.3601 14.1205 12.4703 11.1546 5.7601 6.6951 2.8017 0.0000 0.0000 0.0000 -93.4865 3.6243 68.5427 143.3437 -45.9592 -104.0075 -0.0000 0.0000 -10.9846 7.6990 21.0537 2.7804 -7.1250 0.0000 -0.0000 -20.6646 50.0385 -2.6670 0.0000 0.0000 0.0000 94.4571 -41.6433 -4.5424 -83.5331 59.8414 -54.4025 0.0000 -0.0000 -22.1208 13.4380 56.5602 11.2759 7.1250 -0.0000 -0.0000 24.5151 23.2855 34.5660
0.4626 16.5289 -3.0177 902.5590 152.7270 -886.0040 0.0000 0.0000 0.0000 -28.3320 24.3550 -33.6310 6.6217 15.0049 47.4287 -0.4470 13.9031 -13.0779 0.0038 0.3969 1.0906 0.0000 0.0000 0.0000 24.8514 -10.4190 -39.9226 -5.5451 -13.9725 43.1276 0.0538 -5.1586 -5.2006 -2.0943 9.0597 -25.9824 -4.1283 -1.1607 -2.8232 -3.7084 -1.8920 -12.7484 -1.6087 -0.6589 -12.1611 -8.3240 7.6846 -5.7198 15.4715 9.6794 11.6165 6.4589 5.3324 3.1349 -0.0000 0.0000 0.0000 -94.1045 6.2559 67.9645 141.4601 -47.1807 -102.6395 -0.0000 0.0000 -12.2463 7.9622 21.9150 2.9883 -7.1250 0.0000 -0.0000 -20.8353 50.8853 -3.1382 -0.0000 0.0000 0.0000 93.4643 -40.5563 0.8080 -87.1783 59.9699 -57.5566 0.0000 -0.0000 -23.6608 9.4491 55.5911 7.8183 7.1250 -0.0000 -0.0000 22.9800 22.4679 31.9627
0.3268 16.5843 -2.9838 900.6460 160.7920 -887.6930 0.0000 0.0000 0.0000 -25.3884 23.3064 -34.1153 7.6875 15.8845 51.4290 -1.0329 17.7568 -8.8459 0.7146 5.4024 15.0600 0.0000 0.0000 0.0000 26.5481 -6.2670 -36.6621 -5.0618 -13.4531 41.0890 0.1225 -6.2327 -3.0237 -1.3259 7.2921 -20.5837 -2.6227 -2.2486 -2.9624 -2.8989 -3.3078 -12.8131 -1.4514 -1.4900 -12.1689 -8.7161 4.9103 -5.0357 15.2086 5.9436 10.7540 6.3542 3.3967 3.2237 0.0000 0.0000 0.0000 -94.3081 8.7378 66.9399 139.5784 -48.3177 -101.2465 -0.0000 0.0000 -11.9504 4.7693 20.9367 1.7077 -7.1250 0.0000 -0.0000 -23.3114 49.4883 -2.7123 0.0000 0.0000 0.0000 93.4909 -38.3431 5.3622 -89.1490 59.9973 -59.2631 0.0000 -0.0000 -23.0647 7.1770 55.1515 5.9000 7.1250 -0.0000 -0.0000 22.0868 22.1535 30.5085
0.1841 16.5353 -2.9731 898.9780 168.9240 -888.8280 0.0000 0.0000 0.0000 -21.9068 22.7821 -35.1406 8.8986 16.7420 55.7388 -1.1672 19.5496 -1.2227 2.7823 10.3339 30.0650 0.0000 0.0000 0.0000 28.3457 -3.0558 -34.2771 -4.8164 -13.1740 40.0234 0.0604 -4.3607 -1.8207 -1.2067 6.9691 -19.6238 -1.7862 -3.1327 -3.6546 -1.7148 -4.3899 -12.2837 -0.5947 -2.0719 -11.0846 -10.7882 2.2356 -5.5490 15.9092 2.4213 10.5805 6.8746 1.6062 3.6579 -0.0000 -0.0000 0.0000 -95.0004 9.9247 66.2953 137.4641 -49.5026 -99.6529 -0.0000 0.0000 -11.1361 6.6819 22.0784 2.5214 -7.1250 0.0000 -0.0000 -22.1163 50.8339 -3.3186 -0.0000 -0.0000 0.0000 92.2678 -35.9674 10.0043 -92.6067 59.9743 -62.2572 0.0000 -0.0000 -24.5124 14.3959 54.6963 11.8311 7.1250 -0.0000 -0.0000 24.7888 21.5297 34.6791
0.0581 16.4176 -2.9772 898.5830 177.6350 -890.2550 0.0000 0.0000 0.0000 -19.3035 21.3705 -33.9585 10.0447 17.4349 59.6376 -0.7984 19.2660 5.0357 4.8212 13.1796 40.0445 0.0000 0.0000 0.0000 28.7206 -0.2987 -31.5890 -4.8282 -13.1876 40.0749 0.0141 -2.2021 -1.4757 -0.7134 5.3979 -15.0470 -0.7156 -4.1133 -2.2704 -1.7490 -5.7989 -12.1968 -1.0215 -2.8887 -11.9494 -12.1077 -0.5042 -4.8049 17.3102 -1.4743 10.4571 7.4168 -0.3503 4.0545 0.0000 0.0000 0.0000 -93.6676 12.7321 64.6236 136.4415 -50.0424 -98.8721 -0.0000 0.0000 -9.6726 6.3948 22.4427 2.4500 -7.1250 0.0000 -0.0000 -22.5725 51.1244 -3.5601 0.0000 0.0000 0.0000 93.1001 -34.2593 14.7843 -94.3193 59.9294 -63.7397 0.0000 -0.0000 -22.6378 9.2221 55.2901 7.6022 7.1250 -0.0000 -0.0000 22.8729 22.1927 31.7434
-0.0394 16.3576 -3.0047 898.7640 186.4890 -891.1410 0.0000 0.0000 0.0000 -17.8178 17.6407 -32.1932 10.8365 17.8541 62.2494 -0.4373 13.8681 2.9934 2.3247 9.5120 27.4104 0.0000 0.0000 0.0000 29.1407 1.3567 -29.9891 -4.9182 -13.2910 40.4680 -0.0025 0.2967 -0.8937 -0.7622 5.5753 -15.5570 -0.9583 -4.7774 -1.4375 -1.4881 -6.7559 -11.8616 -0.4658 -3.3296 -12.0205 -13.6422 -3.7003 -3.2574 17.7999 -5.8881 9.1359 7.5915 -2.6695 4.1495 0.0000 -0.0000 0.0000 -93.2159 14.8687 63.6417 135.5184 -50.5120 -98.1620 -0.0000 0.0000 -8.5836 7.1710 23.1185 2.8281 -7.1250 0.0000 -0.0000 -22.2004 51.8751 -3.9184 0.0000 -0.0000 0.0000 92.8944 -32.4550 19.2239 -97.2103 59.8026 -66.2402 0.0000 -0.0000 -22.1688 13.8304 54.7207 11.3635 7.1250 -0.0000 -0.0000 24.5774 21.5549 34.3410
-0.1084 16.2973 -3.0389 899.5460 195.8880 -891.8850 0.0000 0.0000 0.0000 -17.6575 13.2905 -30.6485 11.1699 18.0172 63.3322 -0.5495 13.9829 0.3495 2.2035 9.2776 26.6677 0.0000 0.0000 0.0000 29.0989 2.7214 -29.0129 -5.0460 -13.4354 41.0210 0.0129 2.2636 -0.2684 -0.6029 4.9704 -13.8243 -0.6479 -5.2612 -0.4847 -2.1035 -7.5502 -11.7921 -1.1177 -3.8011 -12.6854 -14.6138 -6.8146 -1.0892 18.8908 -10.4738 8.0345 7.8221 -5.0660 4.3285 0.0000 0.0000 0.0000 -91.5016 17.6354 62.0258 135.3127 -50.6144 -98.0032 -0.0000 0.0000 -8.2861 5.6334 23.4381 2.2468 -7.1250 0.0000 -0.0000 -23.8237 51.9124 -4.2549 0.0000 0.0000 0.0000 92.9965 -31.7485 24.7088 -101.0157 59.5365 -69.5250 0.0000 -0.0000 -22.8780 9.2442 55.4302 7.6333 7.1250 -0.0000 -0.0000 22.8913 22.3239 31.7967
-0.1506 16.2577 -3.0240 901.6860 205.9360 -893.2700 0.0000 0.0000 0.0000 -19.1818 9.3099 -28.3127 10.9998 17.9350 62.7809 -0.7108 15.0002 -2.5694 2.5537 9.9348 28.7659 0.0000 0.0000 0.0000 27.8458 2.4310 -28.3449 -5.1196 -13.5172 41.3367 0.0789 5.0945 0.6962 -0.4149 4.1347 -11.4559 -2.8682 -5.3097 0.0347 -1.9498 -7.8062 -11.6497 0.3154 -3.7015 -12.5096 -15.9017 -10.0409 1.7053 18.6168 -15.0726 6.2075 7.6221 -7.5492 4.2042 -0.0000 -0.0000 0.0000 -91.5695 19.8439 60.8065 135.3983 -50.5719 -98.0693 -0.0000 0.0000 -8.1886 4.9396 24.7808 2.0747 -7.1250 0.0000 -0.0000 -25.2588 53.0109 -5.2448 -0.0000 -0.0000 0.0000 92.4396 -29.8330 28.4398 -102.4159 59.4094 -70.7312 0.0000 -0.0000 -22.8192 10.8629 55.5865 8.9960 7.1250 -0.0000 -0.0000 23.5091 22.4184 32.7916
-0.2153 16.2403 -3.0067 904.8500 216.2320 -895.6890 0.0000 0.0000 0.0000 -21.4216 4.9733 -26.0168 10.6075 17.7376 61.5003 -0.9212 16.7046 -6.5990 2.7037 10.1993 29.6245 0.0000 0.0000 0.0000 26.0708 2.8625 -27.2949 -5.1683 -13.5709 41.5450 0.1526 7.0250 1.2153 -0.2513 3.2254 -8.9070 -5.3469 -5.2433 0.5729 -2.2512 -8.0133 -11.5916 1.3975 -3.5863 -12.5030 -17.6407 -13.1608 4.3556 19.4259 -19.8373 5.0005 7.7512 -10.0783 4.5214 -0.0000 -0.0000 0.0000 -91.1606 22.3674 59.4128 135.6357 -50.4532 -98.2525 -0.0000 0.0000 -7.2553 4.9586 26.1665 2.1911 -7.1250 0.0000 -0.0000 -26.1139 54.2575 -6.2661 -0.0000 -0.0000 0.0000 91.8387 -28.7668 32.1232 -105.1023 59.1204 -73.0403 0.0000 -0.0000 -22.7926 11.8308 55.4849 9.7927 7.1250 -0.0000 -0.0000 23.8645 22.2997 33.3368
-0.2692 16.2330 -2.9634 907.6940 226.7950 -898.3220 0.0000 0.0000 0.0000 -22.6362 1.1193 -23.5453 10.1284 17.4814 59.9167 -1.1639 18.9126 -10.3619 3.7885 11.8735 35.2861 0.0000 0.0000 0.0000 25.1300 3.3924 -25.9893 -5.1333 -13.5323 41.3952 0.2307 8.6091 1.5729 -0.0669 1.6694 -4.5927 -6.4288 -4.9649 0.6905 -2.4204 -7.8101 -11.5826 1.7930 -3.4150 -12.4805 -18.6670 -15.8753 7.3276 19.8031 -24.1205 3.8569 7.6498 -12.3759 4.6780 0.0000 0.0000 0.0000 -90.5649 24.9858 57.8130 136.0189 -50.2594 -98.5476 -0.0000 0.0000 -6.7307 5.0150 27.1133 2.2902 -7.1250 0.0000 -0.0000 -26.6962 55.1116 -6.9951 0.0000 0.0000 0.0000 91.8195 -27.6062 35.5546 -107.0701 58.8698 -74.7270 0.0000 -0.0000 -22.2843 10.4846 55.1535 8.6359 7.1250 -0.0000 -0.0000 23.3399 22.0214 32.4486
-0.3358 16.2497 -2.9019 908.7260 237.3040 -899.2550 0.0000 0.0000 0.0000 -21.6077 -1.9613 -22.7034 9.7551 17.2698 58.6667 -1.1606 19.6251 -14.0104 3.2611 11.1061 32.6387 0.0000 0.0000 0.0000 25.9946 4.1622 -24.7448 -4.9758 -13.3565 40.7181 0.2481 8.9202 1.6620 -0.0347 -1.2024 3.3060 -5.6778 -4.7012 0.2293 -1.9265 -7.3905 -11.7783 1.8519 -3.2867 -12.4626 -18.4952 -18.2252 11.7607 20.1775 -27.6113 0.2667 7.7795 -14.3723 3.6067 0.0000 0.0000 0.0000 -90.2622 28.1253 55.9267 136.6387 -49.9400 -99.0231 -0.0000 0.0000 -6.2606 4.9414 27.6612 2.2985 -7.1250 0.0000 -0.0000 -27.1514 55.5829 -7.4485 0.0000 0.0000 0.0000 90.7961 -26.7307 39.3016 -109.2856 58.5469 -76.6203 0.0000 -0.0000 -22.1816 12.4952 55.4094 10.3390 7.1250 -0.0000 -0.0000 24.1084 22.2166 33.7124
